<svg width="24" height="24" viewBox="0 0 24 24" fill="none" xmlns="http://www.w3.org/2000/svg">
<g clip-path="url(#clip0_3646_6102)">
<path d="M18.6131 0H5.38691C2.4118 0 0 2.4118 0 5.38691V18.6131C0 21.5882 2.4118 24 5.38691 24H18.6131C21.5882 24 24 21.5882 24 18.6131V5.38691C24 2.4118 21.5882 0 18.6131 0Z" fill="white" fill-opacity="0.8"/>
<path fill-rule="evenodd" clip-rule="evenodd" d="M5.375 16.3011V7.7053H9.59807C10.0552 7.69995 10.5083 7.79057 10.9282 7.97132C11.2521 8.10383 11.5342 8.32126 11.7449 8.60071C11.9556 8.88015 12.087 9.21126 12.1253 9.55913C12.19 9.95206 12.1557 10.3549 12.0255 10.7313C11.8812 11.0901 11.6127 11.3852 11.269 11.5626L11.1027 11.654H11.1776C11.4906 11.7695 11.7669 11.967 11.9775 12.2259C12.1881 12.4848 12.3253 12.7954 12.3747 13.1255C12.4919 13.6874 12.4187 14.2723 12.1668 14.7881C11.9987 15.1506 11.7425 15.4653 11.4216 15.7034C11.1007 15.9415 10.7253 16.0956 10.3296 16.1514C9.96708 16.2128 9.59999 16.2434 9.23229 16.2429H5.375V16.3011ZM7.36184 14.8047H9.21566C9.39995 14.8021 9.5836 14.7826 9.76433 14.7465C9.96801 14.7217 10.1584 14.6325 10.308 14.4919C10.4575 14.3514 10.5582 14.1668 10.5956 13.9651C10.6177 13.8051 10.6177 13.6429 10.5956 13.4829C10.5889 13.2961 10.5246 13.1159 10.4115 12.9671C10.2984 12.8183 10.142 12.7081 9.96385 12.6516C9.76362 12.5806 9.5528 12.5441 9.34036 12.5435H7.36184V14.8047ZM7.36184 11.0887H9.23229C9.52037 11.0987 9.80631 11.0358 10.0636 10.9059C10.1519 10.8611 10.2295 10.7978 10.2912 10.7203C10.3529 10.6429 10.3972 10.553 10.4211 10.4569C10.4551 10.2868 10.4551 10.1117 10.4211 9.94153C10.4093 9.79046 10.3497 9.64705 10.2511 9.532C10.1525 9.41694 10.0199 9.3362 9.8724 9.30142C9.60118 9.22939 9.32171 9.19306 9.04109 9.19335H7.37846L7.36184 11.0887ZM19.1914 13.4081H14.7023V13.6741C14.7231 13.8468 14.7708 14.0151 14.8437 14.1729C14.9363 14.3664 15.0749 14.5342 15.2473 14.6617C15.4198 14.7892 15.6208 14.8726 15.8329 14.9045C16.0797 14.9553 16.3343 14.9553 16.5811 14.9045C16.758 14.8709 16.925 14.7972 17.069 14.6891C17.2131 14.5811 17.3306 14.4414 17.4124 14.281C17.4193 14.265 17.431 14.2516 17.4459 14.2427C17.4609 14.2337 17.4782 14.2297 17.4955 14.2311H19.1249C19.1249 14.3142 19.1249 14.3974 19.0667 14.4722C18.9672 14.7824 18.7996 15.0664 18.5762 15.3035C18.1283 15.8104 17.5102 16.1356 16.8388 16.2179C16.3042 16.306 15.757 16.2776 15.2344 16.1348C14.6918 15.9911 14.1978 15.704 13.8045 15.3035C13.4964 14.9687 13.2889 14.5538 13.206 14.1064C13.0286 13.3134 13.063 12.4877 13.3057 11.7122C13.4453 11.2066 13.7298 10.753 14.1243 10.4073C14.5187 10.0616 15.0058 9.83899 15.5253 9.76696C16.2091 9.63208 16.9174 9.70147 17.562 9.96647C18.1483 10.2143 18.6221 10.6703 18.8921 11.2467C19.0707 11.6298 19.167 12.0461 19.1748 12.4687V13.3915C19.1997 13.3749 19.1997 13.3915 19.1914 13.4081ZM17.5288 12.344V12.1695C17.5013 11.9479 17.414 11.7381 17.2764 11.5623C17.1387 11.3866 16.9559 11.2516 16.7474 11.1719C16.5174 11.0826 16.2697 11.0484 16.0241 11.0721C15.7892 11.0762 15.5607 11.1493 15.367 11.2824C15.1734 11.4154 15.0232 11.6025 14.9351 11.8203C14.8822 11.9475 14.8377 12.078 14.8021 12.211C14.7992 12.2636 14.7992 12.3164 14.8021 12.369L17.5288 12.344ZM14.3947 9.05203V8.05445H17.853V9.04372L14.3947 9.05203Z" fill="#1B1B1B"/>
</g>
<defs>
<clipPath id="clip0_3646_6102">
<rect width="24" height="24" fill="white"/>
</clipPath>
</defs>
</svg>
