<svg width="26" height="26" viewBox="0 0 26 26" fill="none" xmlns="http://www.w3.org/2000/svg">
<path d="M6.45957 5.68691L6.45906 16.8005C6.45906 19.0969 8.2462 20.9759 10.5055 21.1225L10.7903 21.1317L18.4383 21.1329C18.0812 22.1416 17.1189 22.8642 15.9878 22.8642H9.92406C7.05356 22.8642 4.72656 20.5372 4.72656 17.6667V8.13797C4.72656 7.00627 5.44996 6.04352 6.45957 5.68691ZM19.4528 2.07422C20.8881 2.07422 22.0516 3.23772 22.0516 4.67297V16.8005C22.0516 18.2357 20.8881 19.3992 19.4528 19.3992H10.7903C9.35506 19.3992 8.19156 18.2357 8.19156 16.8005V4.67297C8.19156 3.23772 9.35506 2.07422 10.7903 2.07422H19.4528ZM19.4528 3.80672H10.7903C10.3119 3.80672 9.92406 4.19455 9.92406 4.67297V16.8005C9.92406 17.2789 10.3119 17.6667 10.7903 17.6667H19.4528C19.9312 17.6667 20.3191 17.2789 20.3191 16.8005V4.67297C20.3191 4.19455 19.9312 3.80672 19.4528 3.80672Z" fill="black"/>
</svg>
