<svg width="120" height="121" viewBox="0 0 120 121" fill="none" xmlns="http://www.w3.org/2000/svg">
    <path fill-rule="evenodd" clip-rule="evenodd"
        d="M29.3934 14.8934C25 19.2868 25 26.3579 25 40.5V80.5C25 94.6421 25 101.713 29.3934 106.107C33.7868 110.5 40.8579 110.5 55 110.5H65C79.1421 110.5 86.2132 110.5 90.6066 106.107C95 101.713 95 94.6421 95 80.5V40.5C95 26.3579 95 19.2868 90.6066 14.8934C86.2132 10.5 79.1421 10.5 65 10.5H55C40.8579 10.5 33.7868 10.5 29.3934 14.8934ZM41.25 85.5C41.25 83.4289 42.9289 81.75 45 81.75H60C62.0711 81.75 63.75 83.4289 63.75 85.5C63.75 87.5711 62.0711 89.25 60 89.25H45C42.9289 89.25 41.25 87.5711 41.25 85.5ZM45 61.75C42.9289 61.75 41.25 63.4289 41.25 65.5C41.25 67.5711 42.9289 69.25 45 69.25H75C77.0711 69.25 78.75 67.5711 78.75 65.5C78.75 63.4289 77.0711 61.75 75 61.75H45ZM41.25 45.5C41.25 43.4289 42.9289 41.75 45 41.75H75C77.0711 41.75 78.75 43.4289 78.75 45.5C78.75 47.5711 77.0711 49.25 75 49.25H45C42.9289 49.25 41.25 47.5711 41.25 45.5Z"
        fill="#3D3D3D" />
    <path
        d="M26.1762 20.793C25 25.2094 25 31.3869 25 40.5017V80.5017C25 89.6168 25 95.7944 26.1764 100.211L25 100.121C20.1246 99.6418 16.8428 98.558 14.3934 96.1086C10 91.7152 10 84.6441 10 70.502V50.502C10 36.3598 10 29.2888 14.3934 24.8954C16.8428 22.4459 20.1246 21.3621 25 20.8826L26.1762 20.793Z"
        fill="white" fill-opacity="0.06" />
    <path
        d="M25.0435 21.3807L25.5242 21.3441C24.5 25.7692 24.5 31.8228 24.5 40.4059V40.5017V80.5017V80.5975C24.5 89.1809 24.5 95.2347 25.5243 99.6598L25.0434 99.6232C20.215 99.1477 17.0743 98.0824 14.747 95.755C12.6586 93.6667 11.5864 90.9237 11.0447 86.8944C10.5011 82.8508 10.5 77.5872 10.5 70.502V50.502C10.5 43.4168 10.5011 38.1532 11.0447 34.1095C11.5864 30.0803 12.6586 27.3372 14.747 25.2489C17.0744 22.9215 20.215 21.8562 25.0435 21.3807Z"
        stroke="white" stroke-opacity="0.12" />
    <path
        d="M93.8242 100.211C95.0006 95.7944 95.0006 89.6168 95.0006 80.5017V40.5017C95.0006 31.3869 95.0006 25.2094 93.8243 20.793L95.0006 20.8826C99.876 21.3621 103.158 22.4459 105.607 24.8954C110.001 29.2888 110.001 36.3598 110.001 50.502V70.502C110.001 84.6441 110.001 91.7152 105.607 96.1086C103.158 98.558 99.876 99.6418 95.0006 100.121L93.8242 100.211Z"
        fill="white" fill-opacity="0.06" />
    <path
        d="M94.9571 99.6232L94.4763 99.6598C95.5006 95.2347 95.5006 89.1809 95.5006 80.5975V80.5017V40.5017V40.4059C95.5006 31.8228 95.5006 25.7692 94.4764 21.3441L94.9571 21.3807C99.7856 21.8562 102.926 22.9215 105.254 25.2489C107.342 27.3372 108.414 30.0803 108.956 34.1095C109.5 38.1532 109.501 43.4168 109.501 50.502V70.502C109.501 77.5872 109.5 82.8508 108.956 86.8944C108.414 90.9237 107.342 93.6667 105.254 95.755C102.926 98.0824 99.7856 99.1477 94.9571 99.6232Z"
        stroke="white" stroke-opacity="0.12" />
</svg>