<svg width="24" height="24" viewBox="0 0 24 24" fill="none" xmlns="http://www.w3.org/2000/svg">
<g clip-path="url(#clip0_3154_7623)">
<path d="M0.794 9.94443H0.8C5.071 9.89043 8.793 9.41943 11.86 8.54243C11.9332 8.5212 12.0006 8.48356 12.057 8.43236C12.1135 8.38117 12.1575 8.31777 12.1858 8.24699C12.214 8.17621 12.2258 8.09992 12.2201 8.02392C12.2144 7.94792 12.1915 7.87422 12.153 7.80843C10.7792 5.4754 9.14067 3.30873 7.27 1.35143C7.19638 1.2742 7.09999 1.22254 6.99492 1.20401C6.88984 1.18547 6.7816 1.20104 6.686 1.24843C5.08689 2.03492 3.68398 3.16919 2.58005 4.56813C1.47611 5.96708 0.699125 7.59527 0.306 9.33343C0.289905 9.40663 0.290374 9.48251 0.307371 9.5555C0.324368 9.6285 0.357463 9.69678 0.404239 9.75535C0.451014 9.81391 0.510286 9.86128 0.577721 9.894C0.645156 9.92671 0.71905 9.94394 0.794 9.94443ZM14.441 8.73643C14.3763 8.76181 14.3176 8.80044 14.2686 8.84983C14.2197 8.89922 14.1817 8.9583 14.1569 9.02326C14.1321 9.08823 14.1212 9.15765 14.1249 9.22707C14.1285 9.2965 14.1466 9.36441 14.178 9.42643C14.595 10.2514 14.988 11.1064 15.346 11.9684C15.3897 12.076 15.4698 12.1648 15.5724 12.2193C15.6749 12.2738 15.7934 12.2904 15.907 12.2664C18.486 11.7474 21.067 11.7954 23.368 12.4074C23.4422 12.4268 23.5198 12.429 23.595 12.4139C23.6702 12.3988 23.741 12.3669 23.802 12.3204C23.8626 12.2733 23.9116 12.213 23.9452 12.144C23.9789 12.075 23.9962 11.9992 23.996 11.9224C23.9885 9.19779 23.0444 6.55858 21.322 4.44743C21.226 4.32843 21.072 4.24443 20.926 4.26243C20.8504 4.26363 20.7761 4.28189 20.7086 4.31582C20.6411 4.34976 20.5821 4.39851 20.536 4.45843C19.18 6.23643 17.129 7.67543 14.441 8.73643ZM13.228 7.66443C13.2874 7.76793 13.3818 7.84679 13.4942 7.88677C13.6066 7.92675 13.7296 7.92521 13.841 7.88243C16.601 6.82443 18.647 5.38243 19.922 3.59543C20.072 3.38543 20.038 3.09543 19.842 2.92743C18.3494 1.63015 16.5579 0.724011 14.6285 0.290436C12.699 -0.143139 10.6921 -0.0905666 8.788 0.443428C8.7056 0.466219 8.63041 0.509761 8.56963 0.569892C8.50885 0.630024 8.46451 0.704736 8.44083 0.786892C8.41716 0.869048 8.41495 0.955902 8.43441 1.03916C8.45387 1.12241 8.49436 1.19928 8.552 1.26243C10.3385 3.22029 11.9064 5.36696 13.228 7.66443ZM14.005 12.7674C14.0718 12.7468 14.1334 12.7123 14.186 12.6662C14.2385 12.6201 14.2808 12.5635 14.3101 12.5C14.3393 12.4366 14.3548 12.3676 14.3557 12.2978C14.3566 12.2279 14.3427 12.1586 14.315 12.0944C13.9634 11.2596 13.5805 10.4384 13.167 9.63243C13.1135 9.52848 13.0253 9.44655 12.9177 9.40088C12.8101 9.3552 12.6899 9.34868 12.578 9.38243C9.263 10.3844 5.208 10.9114 0.524 10.9484C0.39614 10.9493 0.273473 10.9991 0.181219 11.0877C0.0889649 11.1762 0.0341344 11.2967 0.028 11.4244L0.017 11.6064C0.00677819 11.7362 0.00110804 11.8663 0 11.9964C0 15.1074 1.193 18.0594 3.359 20.3104C3.40557 20.3589 3.46148 20.3975 3.52335 20.4238C3.58522 20.45 3.65177 20.4635 3.719 20.4634L3.767 20.4614C3.84205 20.4543 3.91451 20.4303 3.97894 20.3911C4.04337 20.352 4.09809 20.2988 4.139 20.2354C6.432 16.6974 9.936 14.0444 14.005 12.7674Z" fill="white" fill-opacity="0.8"/>
<path d="M14.438 13.6558C10.4477 14.8695 7.03088 17.4854 4.818 21.0208C4.75106 21.1281 4.72725 21.2567 4.75137 21.3809C4.77549 21.505 4.84575 21.6154 4.948 21.6898C6.99315 23.1888 9.46333 23.996 11.999 23.9938C13.592 23.9938 15.144 23.6838 16.609 23.0728C16.706 23.0323 16.7877 22.9623 16.8427 22.8728C16.8976 22.7832 16.9229 22.6786 16.915 22.5738C16.6838 19.6336 16.0579 16.7379 15.054 13.9648C15.0108 13.844 14.9226 13.7444 14.8079 13.6869C14.6932 13.6293 14.5607 13.6182 14.438 13.6558ZM23.462 13.4878C21.301 12.8418 18.875 12.7318 16.444 13.1688C16.3725 13.1815 16.3047 13.2096 16.2452 13.2511C16.1857 13.2927 16.1359 13.3467 16.0994 13.4094C16.0628 13.4721 16.0404 13.542 16.0336 13.6142C16.0268 13.6865 16.0358 13.7594 16.06 13.8278C16.9545 16.3552 17.5476 18.9794 17.827 21.6458C17.8357 21.7314 17.8663 21.8133 17.916 21.8835C17.9656 21.9537 18.0326 22.0099 18.1104 22.0467C18.1882 22.0834 18.2741 22.0994 18.3599 22.0931C18.4457 22.0868 18.5284 22.0585 18.6 22.0108C19.9638 21.1078 21.1292 19.9363 22.0251 18.5679C22.9211 17.1995 23.5287 15.6629 23.811 14.0518C23.8318 13.9314 23.8078 13.8075 23.7435 13.7036C23.6792 13.5997 23.5791 13.5229 23.462 13.4878Z" fill="white" fill-opacity="0.8"/>
</g>
<defs>
<clipPath id="clip0_3154_7623">
<rect width="24" height="24" fill="white"/>
</clipPath>
</defs>
</svg>
