<svg width="163" height="182" viewBox="0 0 163 182" fill="none" xmlns="http://www.w3.org/2000/svg">
<g filter="url(#filter0_d_3579_61792)">
<path fill-rule="evenodd" clip-rule="evenodd" d="M61.8791 83.2983C61.6806 80.52 62.6265 78.4394 64.1843 77.1724C66.6294 75.1848 70.4157 75.0849 72.5797 77.3023C73.5111 78.2558 74.0883 79.6385 74.187 81.4181C74.4237 85.6864 72.5394 88.2764 70.7001 90.952C68.2262 94.5586 65.7597 98.2613 65.715 104.251C65.7102 104.636 65.7815 105.018 65.9248 105.376C66.0681 105.733 66.2806 106.058 66.5502 106.333C66.8197 106.608 67.1409 106.827 67.4953 106.978C67.8497 107.128 68.2303 107.207 68.6153 107.21C69.0003 107.213 69.382 107.139 69.7386 106.994C70.0951 106.849 70.4195 106.635 70.693 106.364C70.9665 106.093 71.1838 105.77 71.3323 105.415C71.4809 105.06 71.5577 104.679 71.5585 104.294C71.5922 99.7438 73.6388 96.997 75.519 94.258C78.0368 90.5908 80.345 86.9424 80.022 81.0957C79.8304 77.6589 78.5581 75.0601 76.7629 73.2201C72.5672 68.9253 65.2332 68.7862 60.4979 72.6371C57.6585 74.9475 55.689 78.6443 56.0483 83.7112C56.1031 84.4844 56.4627 85.2042 57.0482 85.7122C57.6337 86.2203 58.397 86.4749 59.1702 86.4201C59.9434 86.3654 60.6632 86.0057 61.1712 85.4203C61.6792 84.8348 61.9338 84.0715 61.8791 83.2983Z" fill="#CCFF00"/>
<path d="M69.0228 118.045C71.0055 117.952 72.5368 116.269 72.4431 114.286C72.3495 112.303 70.6663 110.772 68.6837 110.866C66.701 110.959 65.1697 112.642 65.2633 114.625C65.357 116.608 67.0402 118.139 69.0228 118.045Z" fill="#CCFF00"/>
<path fill-rule="evenodd" clip-rule="evenodd" d="M111.291 19.8666L120.056 5.25724C120.254 4.92821 120.384 4.56352 120.441 4.18399C120.497 3.80446 120.479 3.41752 120.385 3.04527C120.292 2.67301 120.127 2.32274 119.898 2.01443C119.67 1.70613 119.383 1.44584 119.054 1.24842C118.725 1.05101 118.36 0.920329 117.981 0.863853C117.601 0.807377 117.214 0.826209 116.842 0.919272C116.47 1.01234 116.12 1.17781 115.811 1.40624C115.503 1.63468 115.243 1.9216 115.045 2.25063L106.28 16.86C105.881 17.5245 105.763 18.3202 105.951 19.072C106.138 19.8238 106.617 20.4701 107.282 20.8688C107.946 21.2675 108.742 21.3859 109.494 21.198C110.246 21.01 110.892 20.5311 111.291 19.8666ZM125.114 29.4942L157.255 6.11919C157.882 5.66353 158.302 4.97749 158.423 4.21199C158.544 3.4465 158.356 2.66425 157.9 2.03733C157.675 1.72691 157.39 1.46397 157.063 1.26352C156.736 1.06307 156.372 0.929043 155.993 0.869081C155.228 0.747982 154.445 0.935936 153.819 1.39159L121.678 24.7666C121.051 25.2223 120.631 25.9083 120.51 26.6738C120.389 27.4393 120.577 28.2215 121.032 28.8485C121.488 29.4754 122.174 29.8956 122.939 30.0167C123.705 30.1378 124.487 29.9498 125.114 29.4942ZM129.947 47.4959L153.322 41.6521C153.7 41.5645 154.056 41.4025 154.371 41.1756C154.686 40.9487 154.952 40.6614 155.154 40.3305C155.357 39.9995 155.491 39.6316 155.55 39.2482C155.609 38.8647 155.591 38.4734 155.497 38.0971C155.402 37.7207 155.234 37.3669 155.002 37.0562C154.77 36.7455 154.478 36.4842 154.144 36.2875C153.809 36.0907 153.439 35.9626 153.055 35.9104C152.67 35.8582 152.279 35.8832 151.905 35.9837L128.53 41.8274C127.79 42.026 127.157 42.5073 126.769 43.1677C126.38 43.8281 126.266 44.6148 126.452 45.3582C126.638 46.1015 127.109 46.7422 127.762 47.142C128.416 47.5419 129.2 47.6689 129.947 47.4959Z" fill="#CCFF00"/>
<path d="M142.53 159.801L116.038 133.388C124.585 122.498 129.223 109.051 129.206 95.2084C129.206 82.88 125.55 70.8285 118.701 60.5778C111.851 50.3272 102.116 42.3377 90.7264 37.6199C79.3364 32.902 66.8033 31.6676 54.7118 34.0727C42.6203 36.4779 31.5136 42.4146 22.7961 51.132C14.0786 59.8495 8.14195 70.9563 5.73681 83.0477C3.33166 95.1392 4.56607 107.672 9.28393 119.062C14.0018 130.452 21.9912 140.187 32.2419 147.037C42.4925 153.886 54.5441 157.542 66.8724 157.542C80.7155 157.559 94.1624 152.921 105.052 144.374L131.465 170.865C132.19 171.596 133.051 172.175 134.001 172.571C134.95 172.967 135.969 173.17 136.997 173.17C138.026 173.17 139.044 172.967 139.994 172.571C140.943 172.175 141.805 171.596 142.53 170.865C143.26 170.141 143.839 169.279 144.235 168.33C144.631 167.38 144.834 166.362 144.834 165.333C144.834 164.305 144.631 163.286 144.235 162.337C143.839 161.387 143.26 160.526 142.53 159.801ZM20.1224 95.2084C20.1224 85.9621 22.8643 76.9235 28.0012 69.2355C33.1382 61.5475 40.4395 55.5554 48.982 52.017C57.5244 48.4786 66.9243 47.5528 75.9929 49.3566C85.0615 51.1605 93.3916 55.613 99.9297 62.1511C106.468 68.6892 110.92 77.0193 112.724 86.0879C114.528 95.1565 113.602 104.556 110.064 113.099C106.525 121.641 100.533 128.943 92.8453 134.08C85.1573 139.217 76.1187 141.958 66.8724 141.958C54.4736 141.958 42.5825 137.033 33.8152 128.266C25.0479 119.498 20.1224 107.607 20.1224 95.2084Z" fill="white" fill-opacity="0.06"/>
<path d="M142.176 160.155L142.177 160.156C142.861 160.834 143.403 161.641 143.773 162.529C144.144 163.418 144.334 164.371 144.334 165.333C144.334 166.296 144.144 167.249 143.773 168.138C143.403 169.026 142.861 169.833 142.177 170.51L142.175 170.513C141.497 171.197 140.69 171.739 139.802 172.109C138.913 172.48 137.96 172.67 136.997 172.67C136.035 172.67 135.082 172.48 134.193 172.109C133.305 171.739 132.498 171.197 131.82 170.513L131.819 170.512L105.406 144.021L105.092 143.706L104.743 143.98C93.9419 152.459 80.604 157.059 66.8731 157.042H66.8724C54.643 157.042 42.6881 153.415 32.5197 146.621C22.3512 139.827 14.4259 130.17 9.74587 118.871C5.06585 107.572 3.84135 95.1398 6.2272 83.1453C8.61305 71.1508 14.5021 60.1331 23.1497 51.4856C31.7972 42.838 42.8148 36.949 54.8093 34.5631C66.8038 32.1773 79.2365 33.4018 90.535 38.0818C101.834 42.7618 111.491 50.6872 118.285 60.8556C125.079 71.024 128.706 82.9789 128.706 95.2084V95.209C128.723 108.94 124.123 122.278 115.645 133.079L115.37 133.428L115.685 133.742L142.176 160.155ZM27.5855 68.9577C22.3936 76.7279 19.6224 85.8632 19.6224 95.2084C19.6224 107.74 24.6005 119.758 33.4616 128.619C42.3227 137.48 54.341 142.458 66.8724 142.458C76.2176 142.458 85.3529 139.687 93.1231 134.495C100.893 129.303 106.95 121.924 110.526 113.29C114.102 104.656 115.038 95.156 113.215 85.9903C111.391 76.8247 106.891 68.4056 100.283 61.7976C93.6752 55.1895 85.2561 50.6894 76.0904 48.8663C66.9248 47.0431 57.4244 47.9788 48.7906 51.5551C40.1568 55.1313 32.7774 61.1874 27.5855 68.9577Z" stroke="white" stroke-opacity="0.12"/>
</g>
<defs>
<filter id="filter0_d_3579_61792" x="0.539062" y="0.832031" width="161.918" height="180.34" filterUnits="userSpaceOnUse" color-interpolation-filters="sRGB">
<feFlood flood-opacity="0" result="BackgroundImageFix"/>
<feColorMatrix in="SourceAlpha" type="matrix" values="0 0 0 0 0 0 0 0 0 0 0 0 0 0 0 0 0 0 127 0" result="hardAlpha"/>
<feOffset dy="4"/>
<feGaussianBlur stdDeviation="2"/>
<feComposite in2="hardAlpha" operator="out"/>
<feColorMatrix type="matrix" values="0 0 0 0 0 0 0 0 0 0 0 0 0 0 0 0 0 0 0.25 0"/>
<feBlend mode="normal" in2="BackgroundImageFix" result="effect1_dropShadow_3579_61792"/>
<feBlend mode="normal" in="SourceGraphic" in2="effect1_dropShadow_3579_61792" result="shape"/>
</filter>
</defs>
</svg>
