<svg width="20" height="21" viewBox="0 0 20 21" fill="none" xmlns="http://www.w3.org/2000/svg">
    <path fillRule="evenodd" clipRule="evenodd"
        d="M10 8.14167C8.69518 8.14167 7.64167 9.19518 7.64167 10.5C7.64167 10.9253 7.75327 11.3221 7.95024 11.6659L11.1659 8.45025C10.8221 8.25328 10.4253 8.14167 10 8.14167ZM6.39167 10.5C6.39167 8.50483 8.00482 6.89167 10 6.89167C10.9982 6.89167 11.8967 7.2962 12.5503 7.94973C12.7944 8.19381 12.7944 8.58954 12.5503 8.83361L8.33361 13.0503C8.08953 13.2944 7.6938 13.2944 7.44972 13.0503C6.7962 12.3968 6.39167 11.4982 6.39167 10.5Z"
        fill="white" />
    <path fillRule="evenodd" clipRule="evenodd"
        d="M1.88124 8.00581C3.87368 4.87384 6.79335 2.98334 10 2.98334C11.8747 2.98334 13.6712 3.63634 15.2264 4.80937C15.5019 5.01723 15.5568 5.40913 15.349 5.6847C15.1411 5.96028 14.7492 6.01517 14.4736 5.80731C13.1121 4.78033 11.5753 4.23334 10 4.23334C7.32346 4.23334 4.75991 5.80934 2.93568 8.67712L2.93516 8.67794C2.63967 9.14087 2.47083 9.80354 2.47083 10.5042C2.47083 11.2048 2.63967 11.8675 2.93516 12.3304C3.5633 13.3163 4.29092 14.1609 5.07419 14.8345C5.3359 15.0595 5.3656 15.4542 5.14053 15.7159C4.91546 15.9776 4.52085 16.0073 4.25914 15.7822C3.37574 15.0225 2.56974 14.0832 1.88122 13.0025C1.42691 12.2905 1.22083 11.3784 1.22083 10.5042C1.22083 9.62997 1.42691 8.71782 1.88124 8.00581Z"
        fill="white" />
    <path fillRule="evenodd" clipRule="evenodd"
        d="M16.3166 6.62133C16.5856 6.40499 16.979 6.44765 17.1953 6.71661C17.5152 7.11434 17.8295 7.54171 18.1194 7.99845C18.5733 8.71031 18.7792 9.62203 18.7792 10.4958C18.7792 11.37 18.5731 12.2822 18.1188 12.9942C16.1263 16.1262 13.2066 18.0167 10 18.0167C8.88622 18.0167 7.79569 17.7812 6.77413 17.351C6.456 17.2171 6.3067 16.8506 6.44064 16.5325C6.57459 16.2143 6.94107 16.065 7.2592 16.199C8.13764 16.5689 9.06378 16.7667 10 16.7667C12.6765 16.7667 15.2401 15.1907 17.0643 12.3229L17.0648 12.3221C17.3603 11.8591 17.5292 11.1965 17.5292 10.4958C17.5292 9.79521 17.3603 9.13254 17.0648 8.66961L17.064 8.66823C16.8038 8.25829 16.5181 7.86901 16.2213 7.50006C16.005 7.23109 16.0476 6.83767 16.3166 6.62133Z"
        fill="white" />
    <path fillRule="evenodd" clipRule="evenodd"
        d="M13.0383 10.4687C13.3778 10.5313 13.6022 10.8572 13.5396 11.1967C13.276 12.6266 12.1182 13.7843 10.6883 14.048C10.3489 14.1106 10.023 13.8861 9.96036 13.5467C9.89777 13.2072 10.1222 12.8813 10.4617 12.8187C11.3818 12.649 12.1407 11.8901 12.3104 10.97C12.373 10.6305 12.6989 10.4061 13.0383 10.4687Z"
        fill="white" />
    <path fillRule="evenodd" clipRule="evenodd"
        d="M7.94194 12.5581C8.18602 12.8021 8.18602 13.1979 7.94194 13.4419L3.77527 17.6086C3.5312 17.8527 3.13547 17.8527 2.89139 17.6086C2.64731 17.3645 2.64731 16.9688 2.89139 16.7247L7.05806 12.5581C7.30214 12.314 7.69786 12.314 7.94194 12.5581Z"
        fill="white" />
    <path fillRule="evenodd" clipRule="evenodd"
        d="M17.1086 3.3914C17.3527 3.63547 17.3527 4.0312 17.1086 4.27528L12.9419 8.44195C12.6979 8.68602 12.3021 8.68602 12.0581 8.44195C11.814 8.19787 11.814 7.80214 12.0581 7.55806L16.2247 3.3914C16.4688 3.14732 16.8645 3.14732 17.1086 3.3914Z"
        fill="white" />
</svg>