<svg width="24" height="24" viewBox="0 0 24 24" fill="none" xmlns="http://www.w3.org/2000/svg">
<path d="M8.64914 22.0366C10.5157 22.0366 12.0287 20.5235 12.0287 18.657V15.2773H8.64914C6.78261 15.2773 5.26953 16.7905 5.26953 18.657C5.26953 20.5235 6.78261 22.0366 8.64914 22.0366Z" fill="#0ACF83"/>
<path d="M5.26953 11.8952C5.26953 10.0287 6.78261 8.51562 8.64914 8.51562H12.0287V15.2748H8.64914C6.78261 15.2748 5.26953 13.7617 5.26953 11.8952Z" fill="#A259FF"/>
<path d="M5.26953 5.13743C5.26953 3.2709 6.78261 1.75781 8.64914 1.75781H12.0287V8.51704H8.64914C6.78261 8.51704 5.26953 7.00389 5.26953 5.13743Z" fill="#F24E1E"/>
<path d="M12.0273 1.75781H15.407C17.2735 1.75781 18.7866 3.2709 18.7866 5.13743C18.7866 7.00389 17.2735 8.51704 15.407 8.51704H12.0273V1.75781Z" fill="#FF7262"/>
<path d="M18.7866 11.8952C18.7866 13.7617 17.2735 15.2748 15.407 15.2748C13.5404 15.2748 12.0273 13.7617 12.0273 11.8952C12.0273 10.0287 13.5404 8.51562 15.407 8.51562C17.2735 8.51562 18.7866 10.0287 18.7866 11.8952Z" fill="#1ABCFE"/>
</svg>
