<svg width="201" height="200" viewBox="0 0 201 200" fill="none" xmlns="http://www.w3.org/2000/svg">
<g clip-path="url(#clip0_3154_3426)">
<path d="M183.835 98.3172V116.668C183.835 148.095 183.835 163.808 174.072 173.572C164.308 183.335 148.595 183.335 117.168 183.335H83.8346C52.4077 183.335 36.6942 183.335 26.9311 173.572C17.168 163.808 17.168 148.095 17.168 116.668V57.9159C17.168 50.5614 17.168 46.8842 17.7459 43.8212C20.29 30.3372 30.8372 19.79 44.3212 17.2459C47.3842 16.668 51.0614 16.668 58.4159 16.668C61.6382 16.668 63.2493 16.668 64.7977 16.8128C71.4734 17.437 77.8057 20.0599 82.9675 24.3389C84.1648 25.3314 85.304 26.4707 87.5825 28.7492L92.168 33.3346C98.9661 40.1328 102.365 43.5319 106.436 45.7965C108.672 47.0406 111.043 48.023 113.504 48.7244C117.984 50.0013 122.791 50.0013 132.405 50.0013H135.519C157.455 50.0013 168.423 50.0013 175.553 56.4135C176.208 57.0033 176.833 57.6274 177.422 58.2832C183.835 65.4126 183.835 76.3808 183.835 98.3172Z" fill="white" fill-opacity="0.06"/>
<path d="M183.335 98.3172V116.668C183.335 132.396 183.334 144.141 182.119 153.177C180.906 162.199 178.491 168.445 173.718 173.218C168.945 177.991 162.699 180.406 153.677 181.619C144.641 182.834 132.896 182.835 117.168 182.835H83.8346C68.107 182.835 56.3616 182.834 47.3255 181.619C38.3038 180.406 32.0578 177.991 27.2846 173.218C22.5115 168.445 20.0968 162.199 18.8839 153.177C17.669 144.141 17.668 132.396 17.668 116.668V57.9159C17.668 50.5387 17.6702 46.9194 18.2372 43.9139C20.7431 30.6322 31.1322 20.2431 44.4139 17.7372C47.4194 17.1702 51.0387 17.168 58.4159 17.168C61.6475 17.168 63.2314 17.1685 64.7512 17.3106C71.3267 17.9255 77.564 20.5091 82.6484 24.7239C83.8235 25.698 84.9439 26.8177 87.229 29.1028L91.8144 33.6882L91.8836 33.7574C98.6162 40.49 102.061 43.9348 106.193 46.2334C108.462 47.4961 110.869 48.4933 113.367 49.2053C117.914 50.5013 122.786 50.5013 132.307 50.5013H132.405H135.519C146.5 50.5013 154.689 50.5022 161.026 51.2989C167.35 52.094 171.76 53.6749 175.218 56.7853C175.861 57.3633 176.473 57.9749 177.051 58.6176C180.161 62.0759 181.742 66.4856 182.537 72.8099C183.334 79.1468 183.335 87.3359 183.335 98.3172Z" stroke="white" stroke-opacity="0.12"/>
<path fill-rule="evenodd" clip-rule="evenodd" d="M125.665 167.157C113.607 157.865 111.365 140.557 120.657 128.499C129.95 116.441 147.257 114.199 159.315 123.491C169.309 131.193 172.56 144.4 168.09 155.562L182.805 166.902C186.094 169.436 186.705 174.157 184.171 177.445C181.637 180.734 176.917 181.345 173.628 178.811L158.913 167.471C149.259 174.637 135.659 174.859 125.665 167.157ZM134.842 155.248C129.361 151.025 128.342 143.157 132.566 137.676C136.79 132.196 144.657 131.176 150.138 135.4C155.619 139.624 156.638 147.491 152.414 152.972C148.19 158.453 140.323 159.472 134.842 155.248Z" fill="#CCFF00"/>
</g>
<defs>
<clipPath id="clip0_3154_3426">
<rect width="200" height="200" fill="white" transform="translate(0.5)"/>
</clipPath>
</defs>
</svg>
