<svg width="120" height="120" viewBox="0 0 120 120" fill="none" xmlns="http://www.w3.org/2000/svg">
<path d="M10 34.7487C10 30.3361 10 28.1298 10.3468 26.2919C11.8732 18.2015 18.2015 11.8732 26.2919 10.3468C28.1298 10 30.3361 10 34.7487 10C36.6821 10 37.6488 10 38.5779 10.0869C42.5833 10.4614 46.3826 12.0352 49.4797 14.6026C50.1981 15.1981 50.8816 15.8816 52.2487 17.2487L55 20C59.0789 24.0789 61.1183 26.1183 63.5606 27.4771C64.9022 28.2236 66.3253 28.813 67.8018 29.2339C70.4895 30 73.3737 30 79.1421 30H81.0105C94.1723 30 100.753 30 105.031 33.8473C105.424 34.2012 105.799 34.5757 106.153 34.9692C110 39.2468 110 45.8277 110 58.9895V70C110 88.8562 110 98.2843 104.142 104.142C98.2843 110 88.8562 110 70 110H50C31.1438 110 21.7157 110 15.8579 104.142C10 98.2843 10 88.8562 10 70V34.7487Z" fill="white" fill-opacity="0.06" stroke="white" stroke-opacity="0.12"/>
<g filter="url(#filter0_d_3037_9981)">
<path d="M90 54.2639V30H70V54.2639C70 55.7143 70 56.4395 70.4743 56.7326C70.9485 57.0257 71.5972 56.7014 72.8944 56.0528L79.1056 52.9472L79.1056 52.9472C79.5445 52.7278 79.7639 52.618 80 52.618C80.2361 52.618 80.4555 52.7278 80.8944 52.9472L80.8944 52.9472L87.1056 56.0528C88.4028 56.7014 89.0515 57.0257 89.5257 56.7326C90 56.4395 90 55.7143 90 54.264V54.2639Z" fill="#CCFF00"/>
</g>
<defs>
<filter id="filter0_d_3037_9981" x="66" y="30" width="28" height="34.8398" filterUnits="userSpaceOnUse" color-interpolation-filters="sRGB">
<feFlood flood-opacity="0" result="BackgroundImageFix"/>
<feColorMatrix in="SourceAlpha" type="matrix" values="0 0 0 0 0 0 0 0 0 0 0 0 0 0 0 0 0 0 127 0" result="hardAlpha"/>
<feOffset dy="4"/>
<feGaussianBlur stdDeviation="2"/>
<feComposite in2="hardAlpha" operator="out"/>
<feColorMatrix type="matrix" values="0 0 0 0 0 0 0 0 0 0 0 0 0 0 0 0 0 0 0.25 0"/>
<feBlend mode="normal" in2="BackgroundImageFix" result="effect1_dropShadow_3037_9981"/>
<feBlend mode="normal" in="SourceGraphic" in2="effect1_dropShadow_3037_9981" result="shape"/>
</filter>
</defs>
</svg>
