<svg width="24" height="24" viewBox="0 0 24 24" fill="none" xmlns="http://www.w3.org/2000/svg">
<path d="M22.5005 12.2326C22.5005 11.3693 22.4291 10.7393 22.2744 10.0859H12.2148V13.9826H18.1196C18.0006 14.9509 17.3577 16.4093 15.9291 17.3892L15.9091 17.5197L19.0897 19.9344L19.3101 19.9559C21.3338 18.1242 22.5005 15.4292 22.5005 12.2326Z" fill="#4285F4"/>
<path d="M12.2159 22.5015C15.1088 22.5015 17.5373 21.5682 19.3111 19.9582L15.9302 17.3914C15.0255 18.0098 13.8111 18.4414 12.2159 18.4414C9.38265 18.4414 6.97791 16.6098 6.12069 14.0781L5.99504 14.0886L2.68778 16.5969L2.64453 16.7148C4.40641 20.1448 8.02545 22.5015 12.2159 22.5015Z" fill="#34A853"/>
<path d="M6.119 14.0755C5.89281 13.4222 5.76191 12.7221 5.76191 11.9988C5.76191 11.2754 5.89281 10.5755 6.1071 9.92215L6.10111 9.78301L2.75239 7.23438L2.64283 7.28545C1.91667 8.7088 1.5 10.3072 1.5 11.9988C1.5 13.6905 1.91667 15.2888 2.64283 16.7121L6.119 14.0755Z" fill="#FBBC05"/>
<path d="M12.216 5.55997C14.2279 5.55997 15.585 6.41163 16.3588 7.12335L19.3826 4.23C17.5256 2.53834 15.1088 1.5 12.216 1.5C8.02548 1.5 4.40642 3.85665 2.64453 7.28662L6.10881 9.92332C6.97794 7.39166 9.38268 5.55997 12.216 5.55997Z" fill="#EB4335"/>
</svg>
