<svg width="24" height="24" viewBox="0 0 24 24" fill="none" xmlns="http://www.w3.org/2000/svg">
<g clip-path="url(#clip0_3154_7628)">
<path d="M12.4847 6.87891C11.5668 6.87891 10.6695 7.15109 9.90631 7.66104C9.14312 8.17099 8.54828 8.8958 8.19702 9.74382C7.84576 10.5918 7.75386 11.525 7.93293 12.4252C8.112 13.3255 8.554 14.1524 9.20304 14.8014C9.85209 15.4505 10.679 15.8925 11.5793 16.0716C12.4795 16.2506 13.4127 16.1587 14.2607 15.8075C15.1087 15.4562 15.8335 14.8614 16.3434 14.0982C16.8534 13.335 17.1256 12.4377 17.1256 11.5198C17.1244 10.2893 16.6351 9.10957 15.765 8.23948C14.8949 7.36939 13.7152 6.88007 12.4847 6.87891Z" fill="white" fill-opacity="0.8"/>
<path d="M18.9552 0H6.0067C4.66884 0.0011621 3.3861 0.533141 2.44009 1.47915C1.49408 2.42516 0.9621 3.7079 0.960938 5.04576V17.9931C0.961809 19.3312 1.49366 20.6142 2.4397 21.5605C3.38575 22.5067 4.66865 23.0388 6.0067 23.04H18.9552C20.293 23.0388 21.5758 22.5069 22.5218 21.5608C23.4678 20.6148 23.9998 19.3321 24.0009 17.9942V5.04686C24.0001 3.7088 23.4682 2.42579 22.5222 1.47954C21.5761 0.533292 20.2932 0.00116248 18.9552 0ZM18.9727 6.03429C18.7557 6.03429 18.5436 5.96994 18.3632 5.84938C18.1828 5.72883 18.0421 5.55748 17.9591 5.357C17.8761 5.15652 17.8543 4.93593 17.8967 4.7231C17.939 4.51028 18.0435 4.31478 18.1969 4.16135C18.3504 4.00791 18.5459 3.90341 18.7587 3.86108C18.9715 3.81875 19.1921 3.84048 19.3926 3.92352C19.5931 4.00656 19.7644 4.14718 19.885 4.3276C20.0055 4.50803 20.0699 4.72015 20.0699 4.93714C20.0699 5.22812 19.9543 5.50719 19.7485 5.71294C19.5428 5.91869 19.2637 6.03429 18.9727 6.03429ZM12.4809 17.2581C11.3461 17.2581 10.2367 16.9215 9.29304 16.291C8.34942 15.6605 7.61396 14.7644 7.17966 13.7159C6.74536 12.6674 6.63173 11.5136 6.85314 10.4006C7.07454 9.28749 7.62104 8.26506 8.42352 7.46258C9.226 6.6601 10.2484 6.1136 11.3615 5.8922C12.4746 5.67079 13.6283 5.78443 14.6768 6.21873C15.7253 6.65303 16.6215 7.38849 17.252 8.33211C17.8825 9.27573 18.219 10.3851 18.219 11.52C18.2175 13.0414 17.6125 14.5 16.5368 15.5758C15.461 16.6516 14.0023 17.2566 12.4809 17.2581Z" fill="white" fill-opacity="0.8"/>
</g>
<defs>
<clipPath id="clip0_3154_7628">
<rect width="24" height="24" fill="white"/>
</clipPath>
</defs>
</svg>
