<svg width="24" height="24" viewBox="0 0 24 24" fill="none" xmlns="http://www.w3.org/2000/svg">
<g clip-path="url(#clip0_3154_7636)">
<path d="M12.8485 12.6074L23.3519 4.14351C22.842 3.63364 22.1282 3.42969 21.4144 3.42969H3.05902C2.3452 3.42969 1.63138 3.73561 1.01953 4.14351L11.6249 12.6074C12.0328 12.8113 12.4407 12.8113 12.8485 12.6074Z" fill="white" fill-opacity="0.8"/>
<path d="M14.0725 14.2404C13.4606 14.6483 12.8488 14.8522 12.2369 14.8522C11.6251 14.8522 11.0132 14.6483 10.5034 14.3424L0 5.98047V18.1154C0 19.849 1.32567 21.1746 3.05923 21.1746H21.4146C23.1482 21.1746 24.4738 19.849 24.4738 18.1154V6.49034C24.4738 6.28639 24.4738 6.08244 24.3719 5.98047L14.0725 14.2404Z" fill="white" fill-opacity="0.8"/>
</g>
<defs>
<clipPath id="clip0_3154_7636">
<rect width="24" height="24" fill="white"/>
</clipPath>
</defs>
</svg>
