<svg width="120" height="121" viewBox="0 0 120 121" fill="none" xmlns="http://www.w3.org/2000/svg">
<path fill-rule="evenodd" clip-rule="evenodd" d="M104.146 54.0771L101.558 63.7364C98.5368 75.0118 97.0262 80.6495 93.6016 84.3059C90.8976 87.193 87.3981 89.2134 83.5458 90.1116C83.0645 90.2238 82.5758 90.3103 82.075 90.3721C77.4997 90.9364 71.9168 89.4405 61.7539 86.7173C50.4785 83.6961 44.8408 82.1855 41.1843 78.7609C38.2973 76.0568 36.2769 72.5574 35.3786 68.7051C34.241 63.8262 35.7517 58.1885 38.7729 46.9131L41.3611 37.2539C41.7955 35.6327 42.1989 34.127 42.581 32.7281C44.8564 24.3979 46.3855 19.8149 49.3176 16.6843C52.0216 13.7973 55.521 11.7769 59.3733 10.8786C64.2522 9.74105 69.8899 11.2517 81.1653 14.2729C92.4407 17.2941 98.0784 18.8048 101.735 22.2294C104.622 24.9334 106.642 28.4328 107.541 32.2851C108.678 37.164 107.167 42.8017 104.146 54.0771ZM55.2621 49.5294C55.7981 47.5289 57.8544 46.3417 59.8549 46.8778L84.003 53.3483C86.0035 53.8843 87.1907 55.9406 86.6546 57.941C86.1186 59.9415 84.0623 61.1287 82.0619 60.5927L57.9137 54.1222C55.9132 53.5862 54.726 51.5299 55.2621 49.5294ZM51.3778 64.0167C51.9138 62.0162 53.9701 60.8291 55.9706 61.3651L70.4595 65.2474C72.46 65.7834 73.6471 67.8397 73.1111 69.8402C72.5751 71.8407 70.5188 73.0278 68.5183 72.4918L54.0294 68.6095C52.0289 68.0735 50.8417 66.0172 51.3778 64.0167Z" fill="#3D3D3D"/>
<g opacity="0.5">
<mask id="path-3-inside-1_3037_8528" fill="white">
<path d="M82.0744 90.3723C81.0319 93.564 79.1991 96.4515 76.7348 98.7595C73.0784 102.184 67.4407 103.695 56.1653 106.716C44.8899 109.737 39.2522 111.248 34.3733 110.11C30.521 109.212 27.0216 107.192 24.3176 104.305C20.8929 100.648 19.3823 95.0104 16.3611 83.735L13.7729 74.0758C10.7517 62.8003 9.24105 57.1627 10.3786 52.2838C11.2769 48.4315 13.2973 44.9321 16.1843 42.228C19.8408 38.8034 25.4785 37.2928 36.7539 34.2716C38.887 33.7 40.8184 33.1825 42.581 32.7267C42.5812 32.7262 42.5809 32.7273 42.581 32.7267C42.1989 34.1257 41.7955 35.6328 41.3611 37.254L38.7729 46.9133C35.7517 58.1887 34.241 63.8264 35.3786 68.7053C36.2769 72.5576 38.2973 76.057 41.1843 78.761C44.8408 82.1856 50.4785 83.6963 61.7539 86.7175C71.9165 89.4406 77.4993 90.9364 82.0744 90.3723Z"/>
</mask>
<path d="M82.0744 90.3723C81.0319 93.564 79.1991 96.4515 76.7348 98.7595C73.0784 102.184 67.4407 103.695 56.1653 106.716C44.8899 109.737 39.2522 111.248 34.3733 110.11C30.521 109.212 27.0216 107.192 24.3176 104.305C20.8929 100.648 19.3823 95.0104 16.3611 83.735L13.7729 74.0758C10.7517 62.8003 9.24105 57.1627 10.3786 52.2838C11.2769 48.4315 13.2973 44.9321 16.1843 42.228C19.8408 38.8034 25.4785 37.2928 36.7539 34.2716C38.887 33.7 40.8184 33.1825 42.581 32.7267C42.5812 32.7262 42.5809 32.7273 42.581 32.7267C42.1989 34.1257 41.7955 35.6328 41.3611 37.254L38.7729 46.9133C35.7517 58.1887 34.241 63.8264 35.3786 68.7053C36.2769 72.5576 38.2973 76.057 41.1843 78.761C44.8408 82.1856 50.4785 83.6963 61.7539 86.7175C71.9165 89.4406 77.4993 90.9364 82.0744 90.3723Z" fill="white" fill-opacity="0.06"/>
<path d="M82.0744 90.3723L83.025 90.6828L83.5135 89.1873L81.9521 89.3798L82.0744 90.3723ZM76.7348 98.7595L77.4184 99.4894L77.4184 99.4894L76.7348 98.7595ZM56.1653 106.716L55.9065 105.75L55.9065 105.75L56.1653 106.716ZM34.3733 110.11L34.6004 109.136L34.6004 109.136L34.3733 110.11ZM24.3176 104.305L23.5877 104.988L23.5877 104.988L24.3176 104.305ZM16.3611 83.735L15.3952 83.9938L15.3952 83.9938L16.3611 83.735ZM13.7729 74.0758L14.7388 73.8169L14.7388 73.8169L13.7729 74.0758ZM10.3786 52.2838L9.40476 52.0567L10.3786 52.2838ZM16.1843 42.228L15.5007 41.4982L15.5007 41.4982L16.1843 42.228ZM36.7539 34.2716L36.4951 33.3056L36.4951 33.3056L36.7539 34.2716ZM42.581 32.7267L43.5462 32.9885L43.5462 32.9885L42.581 32.7267ZM41.3611 37.254L42.327 37.5128L42.327 37.5128L41.3611 37.254ZM38.7729 46.9133L37.807 46.6545L37.807 46.6545L38.7729 46.9133ZM35.3786 68.7053L34.4048 68.9323L34.4048 68.9323L35.3786 68.7053ZM41.1843 78.761L41.8679 78.0312L41.8679 78.0312L41.1843 78.761ZM61.7539 86.7175L62.0127 85.7516L62.0127 85.7516L61.7539 86.7175ZM81.1239 90.0618C80.1334 93.0939 78.3923 95.837 76.0512 98.0296L77.4184 99.4894C80.0059 97.066 81.9303 94.0341 83.025 90.6828L81.1239 90.0618ZM76.0512 98.0296C74.3633 99.6105 72.1823 100.787 68.9674 101.948C65.7408 103.114 61.5608 104.235 55.9065 105.75L56.4241 107.682C62.0452 106.176 66.3217 105.031 69.6469 103.83C72.9838 102.624 75.4499 101.333 77.4184 99.4894L76.0512 98.0296ZM55.9065 105.75C50.2522 107.265 46.0717 108.384 42.6946 108.988C39.3297 109.59 36.8526 109.662 34.6004 109.136L34.1462 111.084C36.7729 111.697 39.5541 111.582 43.0466 110.957C46.5269 110.335 50.803 109.188 56.4241 107.682L55.9065 105.75ZM34.6004 109.136C30.9407 108.283 27.6163 106.364 25.0474 103.621L23.5877 104.988C26.4269 108.02 30.1013 110.141 34.1462 111.084L34.6004 109.136ZM25.0474 103.621C23.4665 101.933 22.2899 99.752 21.1286 96.5371C19.963 93.3105 18.8421 89.1305 17.327 83.4762L15.3952 83.9938C16.9013 89.6149 18.0464 93.8915 19.2475 97.2167C20.453 100.554 21.744 103.02 23.5877 104.988L25.0474 103.621ZM17.327 83.4762L14.7388 73.8169L12.807 74.3346L15.3952 83.9938L17.327 83.4762ZM14.7388 73.8169C13.2238 68.1626 12.1045 63.9822 11.5006 60.605C10.8989 57.2402 10.8274 54.7631 11.3525 52.5109L9.40476 52.0567C8.79231 54.6834 8.9073 57.4645 9.53182 60.9571C10.1542 64.4374 11.3008 68.7135 12.807 74.3346L14.7388 73.8169ZM11.3525 52.5109C12.2058 48.8512 14.1252 45.5267 16.8679 42.9579L15.5007 41.4982C12.4693 44.3374 10.3479 48.0118 9.40476 52.0567L11.3525 52.5109ZM16.8679 42.9579C18.5558 41.377 20.7368 40.2004 23.9517 39.039C27.1784 37.8735 31.3584 36.7525 37.0127 35.2375L36.4951 33.3056C30.874 34.8118 26.5974 35.9568 23.2722 37.158C19.9353 38.3634 17.4693 39.6544 15.5007 41.4982L16.8679 42.9579ZM37.0127 35.2375C39.1469 34.6656 41.0739 34.1493 42.8314 33.6949L42.3307 31.7586C40.563 32.2156 38.6271 32.7344 36.4951 33.3056L37.0127 35.2375ZM41.6159 32.4649C41.6159 32.465 41.6159 32.4651 41.6159 32.4651C41.6159 32.4651 41.6159 32.4651 41.6159 32.4651C41.6159 32.4651 41.6159 32.465 41.6159 32.465C41.6159 32.465 41.6159 32.465 41.6159 32.465C41.6159 32.465 41.6159 32.4649 41.6159 32.4648C41.616 32.4648 41.616 32.4647 41.616 32.4646C41.6161 32.4644 41.6164 32.4631 41.6167 32.462C42.8433 31.7619 43.5465 32.9873 43.5463 32.9879C43.5463 32.988 43.5462 32.9882 43.5462 32.9883C43.5462 32.9884 43.5462 32.9885 43.5462 32.9885C43.5462 32.9885 43.5462 32.9886 43.5462 32.9886C43.5462 32.9886 43.5462 32.9886 43.5462 32.9886C43.5461 32.9886 43.5461 32.9886 43.5461 32.9886C43.5461 32.9886 43.5462 32.9886 43.5462 32.9885C43.5462 32.9884 43.5462 32.9884 43.5462 32.9884C43.5462 32.9884 43.5462 32.9884 43.5462 32.9884C43.5462 32.9884 43.5462 32.9884 43.5462 32.9884C43.5462 32.9884 43.5462 32.9884 43.5462 32.9885C43.5462 32.9885 43.5462 32.9886 43.5461 32.9887C43.5461 32.9887 43.5461 32.9889 43.546 32.9891C43.5458 32.9897 42.3198 33.6918 41.6151 32.4678C41.6154 32.4667 41.6158 32.4655 41.6158 32.4653C41.6158 32.4652 41.6159 32.4651 41.6159 32.4651C41.6159 32.465 41.6159 32.465 41.6159 32.4649C41.6159 32.4649 41.6159 32.4649 41.6159 32.4649C41.6159 32.4649 41.6159 32.4649 41.6159 32.4649C41.6159 32.4648 41.616 32.4648 41.6159 32.4648C41.6159 32.4649 41.6159 32.4649 41.6159 32.465L43.5462 32.9885C43.5462 32.9884 43.5462 32.9884 43.5462 32.9883C43.5462 32.9883 43.5462 32.9883 43.5462 32.9883C43.5462 32.9883 43.5462 32.9883 43.5462 32.9882C43.5462 32.9882 43.5463 32.9882 43.5463 32.9882C43.5463 32.9882 43.5463 32.9881 43.5463 32.988C43.5463 32.988 43.5463 32.9879 43.5464 32.9878C43.5464 32.9876 43.5467 32.9864 43.547 32.9853C42.8424 31.7613 41.6163 32.4634 41.6162 32.464C41.6161 32.4642 41.6161 32.4644 41.616 32.4645C41.616 32.4646 41.616 32.4646 41.616 32.4646C41.616 32.4647 41.616 32.4647 41.616 32.4647C41.616 32.4647 41.616 32.4647 41.616 32.4648C41.616 32.4648 41.616 32.4648 41.616 32.4648C41.616 32.4648 41.6159 32.4649 41.6159 32.465C41.6159 32.465 41.6159 32.4651 41.6159 32.4651C41.6159 32.4651 41.6159 32.4651 41.6159 32.4652C41.6159 32.4652 41.6159 32.4652 41.6159 32.4652C41.6159 32.4652 41.6158 32.4652 41.6158 32.4653C41.6158 32.4653 41.6158 32.4653 41.6158 32.4654C41.6158 32.4655 41.6157 32.4657 41.6157 32.4659C41.6155 32.4665 42.3187 33.6919 43.5453 32.9917C43.5456 32.9906 43.546 32.9893 43.546 32.9891C43.546 32.9891 43.5461 32.989 43.5461 32.9889C43.5461 32.9888 43.5461 32.9888 43.5461 32.9888C43.5461 32.9887 43.5461 32.9887 43.5461 32.9887C43.5461 32.9887 43.5461 32.9887 43.5461 32.9887C43.5461 32.9887 43.5461 32.9886 43.5461 32.9886C43.5461 32.9886 43.5462 32.9886 43.5462 32.9885L41.6159 32.4649ZM41.6164 32.4632C41.2335 33.865 40.8293 35.3748 40.3952 36.9952L42.327 37.5128C42.7616 35.8909 43.1644 34.3863 43.5457 32.9902L41.6164 32.4632ZM40.3952 36.9952L37.807 46.6545L39.7388 47.1721L42.327 37.5128L40.3952 36.9952ZM37.807 46.6545C36.3008 52.2755 35.1542 56.5517 34.5318 60.0319C33.9073 63.5245 33.7923 66.3057 34.4048 68.9323L36.3525 68.4782C35.8274 66.226 35.8989 63.7489 36.5006 60.384C37.1045 57.0069 38.2238 52.8264 39.7388 47.1721L37.807 46.6545ZM34.4048 68.9323C35.3479 72.9772 37.4693 76.6516 40.5007 79.4909L41.8679 78.0312C39.1252 75.4623 37.2058 72.1379 36.3525 68.4782L34.4048 68.9323ZM40.5007 79.4909C42.4693 81.3346 44.9353 82.6256 48.2722 83.831C51.5974 85.0322 55.874 86.1773 61.4951 87.6834L62.0127 85.7516C56.3584 84.2365 52.1784 83.1156 48.9517 81.95C45.7368 80.7887 43.5558 79.612 41.8679 78.0312L40.5007 79.4909ZM61.495 87.6834C66.5642 89.0417 70.537 90.1067 73.8144 90.7584C77.0955 91.4108 79.7555 91.6658 82.1968 91.3648L81.9521 89.3798C79.8182 89.6429 77.3992 89.4321 74.2045 88.7968C71.006 88.1608 67.1062 87.1164 62.0127 85.7516L61.495 87.6834Z" fill="white" fill-opacity="0.12" mask="url(#path-3-inside-1_3037_8528)"/>
</g>
</svg>
