<svg width="270" height="270" viewBox="0 0 270 270" fill="none" xmlns="http://www.w3.org/2000/svg">
<path fill-rule="evenodd" clip-rule="evenodd" d="M65.9096 113.809C65.6396 114.645 64.9773 115.429 64.0955 116.231C62.7118 117.492 60.7754 118.69 58.4551 119.855C46.8366 125.668 25.9159 130.258 11.0659 132.958C10.0964 133.207 9.24678 133.792 8.66888 134.609C8.09098 135.426 7.82242 136.422 7.91115 137.419C7.99989 138.416 8.44015 139.349 9.15329 140.051C9.86643 140.753 10.806 141.179 11.8041 141.252L11.8168 141.257C126.55 148.002 224.573 144.425 226.344 144.362H226.517C246.206 144.235 262.149 128.216 262.149 108.502C262.149 90.4459 248.776 75.4905 231.403 73.0056C230.044 66.0519 225.856 59.921 222.151 53.8366C221.705 53.1043 221.855 53.1813 221.309 52.5207V52.5207C214.861 44.7293 206.958 36.8979 198.263 31.733C189.096 26.2876 176.706 20.1861 167.227 20.1953C131.136 20.1953 101.836 49.4988 101.836 85.586L101.841 86.3917C97.6871 82.9537 92.4628 81.0749 87.0709 81.0803C83.1964 81.083 79.3841 82.0553 75.9817 83.9086C72.5792 85.7619 69.6947 88.4373 67.591 91.691C65.4873 94.9446 64.2314 98.673 63.9377 102.536C63.644 106.4 64.3219 110.275 65.9096 113.809Z" fill="white" fill-opacity="0.06"/>
<path d="M67.9167 114.458L68.1664 113.686L67.8337 112.945C66.3903 109.732 65.774 106.209 66.041 102.696C66.308 99.1839 67.4498 95.7943 69.3624 92.8363C71.2749 89.8783 73.8973 87.4459 76.9907 85.761C80.084 84.0761 83.5498 83.1921 87.0723 83.1897H87.073C91.9731 83.1848 96.7209 84.8922 100.496 88.0167L103.974 90.8955L103.95 86.3807L103.946 85.586C103.946 85.5842 103.946 85.5825 103.946 85.5808C103.949 50.6609 132.302 22.3047 167.227 22.3047L167.229 22.3047C171.568 22.3005 176.739 23.7083 182.068 25.873C187.364 28.0243 192.655 30.855 197.186 33.5465C205.589 38.5378 213.312 46.1664 219.684 53.8656C219.806 54.0137 219.865 54.091 219.895 54.1324C219.915 54.1612 219.919 54.1685 219.926 54.1801C219.927 54.1826 219.931 54.1901 219.937 54.2021C219.981 54.2856 220.138 54.5867 220.349 54.9338C220.802 55.6769 221.256 56.4126 221.706 57.1432C225.049 62.5616 228.216 67.6935 229.332 73.4101L229.62 74.8815L231.104 75.0938C247.453 77.4322 260.04 91.511 260.04 108.502C260.04 127.053 245.038 142.129 226.511 142.252H226.344H226.307L226.269 142.254L226.232 142.255C223.466 142.354 126.093 145.85 12.1797 139.165L11.9587 139.149C11.4596 139.112 10.9899 138.899 10.6333 138.548C10.2767 138.197 10.0566 137.73 10.0122 137.232C9.96785 136.734 10.1021 136.236 10.3911 135.827C10.6681 135.435 11.0699 135.15 11.5298 135.018C26.3357 132.323 47.4926 127.699 59.399 121.741L59.4012 121.74C61.7922 120.54 63.9245 119.241 65.5155 117.791C66.4575 116.934 67.47 115.84 67.9167 114.458Z" stroke="white" stroke-opacity="0.12" stroke-width="4.21875"/>
<path fill-rule="evenodd" clip-rule="evenodd" d="M160.108 161.862L163.285 155.353H104.223L95.4813 173.274C95.1679 173.917 95.0232 174.629 95.0609 175.344C95.0986 176.058 95.3173 176.751 95.6966 177.358C96.0759 177.965 96.6032 178.465 97.229 178.812C97.8548 179.159 98.5585 179.34 99.2739 179.34H124.7L104.539 229.236C104.177 230.131 104.132 231.123 104.414 232.046C104.695 232.97 105.284 233.769 106.083 234.311C106.882 234.852 107.843 235.103 108.805 235.022C109.767 234.941 110.672 234.532 111.369 233.864L179.012 169.131C179.622 168.549 180.043 167.797 180.221 166.973C180.4 166.149 180.327 165.291 180.013 164.509C179.699 163.726 179.157 163.056 178.459 162.585C177.76 162.113 176.936 161.861 176.093 161.862H160.108Z" fill="#CCFF00"/>
<path fill-rule="evenodd" clip-rule="evenodd" d="M14.5804 221.333L11.4163 226.813C11.141 227.298 11.0684 227.871 11.2143 228.409C11.3603 228.946 11.7129 229.404 12.1953 229.683C12.6777 229.961 13.2506 230.038 13.7892 229.895C14.3277 229.753 14.788 229.403 15.0697 228.923L18.2338 223.443C18.5091 222.958 18.5817 222.385 18.4358 221.847C18.2898 221.31 17.9372 220.852 17.4548 220.573C16.9724 220.295 16.3994 220.218 15.8609 220.361C15.3224 220.503 14.8621 220.853 14.5804 221.333ZM26.1819 201.239L23.0179 206.719C22.7425 207.204 22.6699 207.777 22.8159 208.315C22.9618 208.852 23.3145 209.31 23.7969 209.589C24.2792 209.867 24.8522 209.944 25.3907 209.801C25.9292 209.659 26.3896 209.309 26.6713 208.829L29.8354 203.349C30.1107 202.864 30.1833 202.291 30.0373 201.753C29.8914 201.216 29.5387 200.758 29.0563 200.479C28.574 200.201 28.001 200.124 27.4625 200.267C26.924 200.409 26.4636 200.759 26.1819 201.239ZM37.7835 181.145L34.6194 186.626C34.3441 187.11 34.2715 187.683 34.4174 188.221C34.5634 188.758 34.916 189.216 35.3984 189.495C35.8808 189.773 36.4538 189.85 36.9923 189.707C37.5308 189.565 37.9911 189.215 38.2729 188.735L41.4369 183.255C41.7122 182.771 41.7848 182.197 41.6389 181.66C41.4929 181.122 41.1403 180.664 40.6579 180.385C40.1755 180.107 39.6026 180.031 39.064 180.173C38.5255 180.315 38.0652 180.665 37.7835 181.145ZM49.385 161.052L46.221 166.532C45.9457 167.016 45.8731 167.589 46.019 168.127C46.1649 168.664 46.5176 169.122 47 169.401C47.4824 169.68 48.0553 169.756 48.5938 169.614C49.1324 169.471 49.5927 169.122 49.8744 168.641L53.0385 163.161C53.3138 162.677 53.3864 162.103 53.2404 161.566C53.0945 161.028 52.7419 160.57 52.2595 160.292C51.7771 160.013 51.2041 159.937 50.6656 160.079C50.1271 160.221 49.6667 160.571 49.385 161.052ZM178.491 207.698L175.327 213.178C175.052 213.663 174.979 214.236 175.125 214.774C175.271 215.311 175.624 215.769 176.106 216.048C176.589 216.326 177.162 216.403 177.7 216.26C178.239 216.118 178.699 215.768 178.981 215.288L182.145 209.808C182.42 209.323 182.493 208.75 182.347 208.212C182.201 207.675 181.848 207.217 181.366 206.938C180.883 206.66 180.311 206.583 179.772 206.726C179.233 206.868 178.773 207.218 178.491 207.698ZM190.093 187.604L186.929 193.084C186.654 193.569 186.581 194.142 186.727 194.68C186.873 195.217 187.226 195.675 187.708 195.954C188.19 196.232 188.763 196.309 189.302 196.166C189.84 196.024 190.301 195.674 190.582 195.194L193.746 189.714C194.022 189.229 194.094 188.656 193.948 188.118C193.802 187.581 193.45 187.123 192.967 186.844C192.485 186.566 191.912 186.489 191.374 186.632C190.835 186.774 190.375 187.124 190.093 187.604ZM205.555 206.171L202.391 211.651C202.115 212.135 202.043 212.709 202.189 213.246C202.335 213.784 202.687 214.242 203.17 214.521C203.652 214.799 204.225 214.875 204.764 214.733C205.302 214.591 205.762 214.241 206.044 213.761L209.208 208.28C209.483 207.796 209.556 207.223 209.41 206.685C209.264 206.148 208.912 205.69 208.429 205.411C207.947 205.133 207.374 205.056 206.835 205.199C206.297 205.341 205.836 205.691 205.555 206.171ZM217.156 186.077L213.992 191.557C213.717 192.042 213.644 192.615 213.79 193.153C213.936 193.69 214.289 194.148 214.771 194.427C215.254 194.705 215.827 194.782 216.365 194.639C216.904 194.497 217.364 194.147 217.646 193.667L220.81 188.187C221.085 187.702 221.158 187.129 221.012 186.591C220.866 186.054 220.513 185.596 220.031 185.317C219.548 185.039 218.975 184.962 218.437 185.105C217.898 185.247 217.438 185.597 217.156 186.077ZM228.758 165.983L225.594 171.463C225.318 171.948 225.246 172.521 225.392 173.059C225.538 173.596 225.89 174.054 226.373 174.333C226.855 174.611 227.428 174.688 227.967 174.545C228.505 174.403 228.965 174.053 229.247 173.573L232.411 168.093C232.687 167.608 232.759 167.035 232.613 166.497C232.467 165.96 232.115 165.502 231.632 165.223C231.15 164.945 230.577 164.868 230.038 165.011C229.5 165.153 229.04 165.503 228.758 165.983ZM48.2122 211.423L45.0482 216.904C44.7729 217.388 44.7002 217.961 44.8462 218.499C44.9921 219.036 45.3448 219.494 45.8272 219.773C46.3096 220.051 46.8825 220.128 47.421 219.985C47.9595 219.843 48.4199 219.493 48.7016 219.013L51.8657 213.533C52.141 213.049 52.2136 212.475 52.0676 211.938C51.9217 211.4 51.569 210.942 51.0867 210.663C50.6043 210.385 50.0313 210.309 49.4928 210.451C48.9543 210.593 48.4939 210.943 48.2122 211.423ZM59.8138 191.329L56.6497 196.81C56.3744 197.294 56.3018 197.867 56.4478 198.405C56.5937 198.942 56.9463 199.4 57.4287 199.679C57.9111 199.957 58.4841 200.034 59.0226 199.892C59.5611 199.749 60.0215 199.4 60.3032 198.919L63.4672 193.439C63.7425 192.955 63.8151 192.381 63.6692 191.844C63.5232 191.306 63.1706 190.848 62.6882 190.57C62.2058 190.291 61.6329 190.215 61.0943 190.357C60.5558 190.499 60.0955 190.849 59.8138 191.329ZM71.4153 171.236L68.2513 176.716C67.976 177.2 67.9034 177.773 68.0493 178.311C68.1953 178.849 68.5479 179.307 69.0303 179.585C69.5127 179.864 70.0856 179.94 70.6242 179.798C71.1627 179.655 71.623 179.306 71.9047 178.825L75.0688 173.345C75.3441 172.861 75.4167 172.287 75.2708 171.75C75.1248 171.212 74.7722 170.754 74.2898 170.476C73.8074 170.197 73.2344 170.121 72.6959 170.263C72.1574 170.405 71.6971 170.755 71.4153 171.236ZM71.1707 220L68.0066 225.48C67.7313 225.964 67.6587 226.538 67.8046 227.076C67.9506 227.613 68.3032 228.071 68.7856 228.35C69.268 228.628 69.841 228.705 70.3795 228.562C70.918 228.42 71.3783 228.07 71.66 227.59L74.8241 222.109C75.0994 221.625 75.172 221.052 75.0261 220.514C74.8801 219.977 74.5275 219.519 74.0451 219.24C73.5627 218.962 72.9897 218.885 72.4512 219.028C71.9127 219.17 71.4524 219.52 71.1707 220ZM82.7722 199.906L79.6082 205.386C79.3328 205.871 79.2602 206.444 79.4062 206.982C79.5521 207.519 79.9048 207.977 80.3872 208.256C80.8695 208.534 81.4425 208.611 81.981 208.468C82.5195 208.326 82.9799 207.976 83.2616 207.496L86.4257 202.016C86.701 201.531 86.7736 200.958 86.6276 200.42C86.4817 199.883 86.129 199.425 85.6466 199.146C85.1643 198.868 84.5913 198.791 84.0528 198.934C83.5143 199.076 83.0539 199.426 82.7722 199.906Z" fill="white"/>
<path fill-rule="evenodd" clip-rule="evenodd" d="M135 89.1097C133.397 89.1097 131.802 89.9998 130.469 91.6072C128.144 94.4084 126.562 99.4962 126.562 102.293C126.562 107.938 130.481 112.313 135 112.313C139.518 112.313 143.437 107.938 143.437 102.293C143.437 99.4962 141.855 94.4084 139.531 91.6072C138.197 89.9998 136.603 89.1097 135 89.1097ZM135 93.3284C135.24 93.3284 135.447 93.493 135.666 93.6701C136.173 94.1175 136.604 94.643 136.944 95.2269C138.303 97.408 139.218 100.483 139.218 102.293C139.218 105.386 137.472 108.094 135 108.094C132.527 108.094 130.781 105.386 130.781 102.293C130.781 100.483 131.696 97.408 133.055 95.2269C133.395 94.643 133.827 94.1175 134.333 93.6701C134.552 93.493 134.759 93.3284 135 93.3284ZM157.211 78.6176C157.211 78.6176 154.153 82.1361 150.347 82.1361C146.538 82.1361 143.479 78.6176 143.479 78.6176C143.294 78.4113 143.07 78.2434 142.82 78.1235C142.571 78.0037 142.299 77.9342 142.023 77.9191C141.464 77.8887 140.916 78.0815 140.499 78.4552C140.082 78.8289 139.831 79.3529 139.8 79.9119C139.77 80.4708 139.963 81.019 140.336 81.4358C140.336 81.4358 144.842 86.3548 150.347 86.3548C155.853 86.3548 160.354 81.4358 160.354 81.4358C160.728 81.019 160.921 80.4708 160.89 79.9119C160.86 79.3529 160.609 78.8289 160.192 78.4552C159.775 78.0815 159.227 77.8887 158.668 77.9191C158.109 77.9496 157.585 78.2009 157.211 78.6176ZM199.399 78.6176C199.399 78.6176 196.34 82.1361 192.535 82.1361C188.725 82.1361 185.667 78.6176 185.667 78.6176C185.482 78.4113 185.258 78.2434 185.008 78.1235C184.758 78.0037 184.487 77.9342 184.21 77.9191C183.651 77.8887 183.103 78.0815 182.686 78.4552C182.269 78.8289 182.018 79.3529 181.988 79.9119C181.957 80.4708 182.15 81.019 182.524 81.4358C182.524 81.4358 187.029 86.3548 192.535 86.3548C198.04 86.3548 202.542 81.4358 202.542 81.4358C202.916 81.019 203.108 80.4708 203.078 79.9119C203.047 79.3529 202.796 78.8289 202.379 78.4552C201.963 78.0815 201.414 77.8887 200.855 77.9191C200.297 77.9496 199.773 78.2009 199.399 78.6176ZM158.785 119.05C159.201 119.05 159.608 118.926 159.954 118.695C160.3 118.463 160.57 118.135 160.73 117.751C160.818 117.641 163.156 114.831 171.441 114.831C179.887 114.831 182.153 117.755 182.153 117.755L182.11 117.65L184.097 119.05C182.482 118.73 183.68 119.316 184.781 118.936C185.043 118.846 185.285 118.705 185.492 118.521C185.7 118.338 185.869 118.115 185.991 117.866C186.112 117.617 186.184 117.346 186.2 117.069C186.217 116.792 186.179 116.515 186.089 116.253C186.089 116.253 184.625 110.613 171.441 110.613C158.253 110.613 156.789 116.253 156.789 116.253C156.68 116.571 156.648 116.91 156.696 117.243C156.744 117.576 156.871 117.892 157.066 118.166C157.262 118.44 157.52 118.663 157.818 118.816C158.117 118.97 158.449 119.05 158.785 119.05Z" fill="white"/>
</svg>
