<svg width="64" height="64" viewBox="0 0 64 64" fill="none" xmlns="http://www.w3.org/2000/svg">
<mask id="path-1-inside-1_6217_6122" fill="white">
<path d="M2.66909 64.0094C2.24664 64.0098 1.83014 63.9098 1.4539 63.7177C1.07767 63.5256 0.752461 63.2468 0.505072 62.9044C0.257684 62.5619 0.0951917 62.1656 0.0309824 61.7481C-0.0332268 61.3305 0.00268382 60.9037 0.135756 60.5028L3.05842 51.7108C1.04583 48.1399 -0.00705886 44.1084 0.00242293 40.0094C0.018336 34.2128 2.12473 28.6164 5.93484 24.2479C9.74496 19.8793 15.0031 17.0318 20.7438 16.2281C21.0908 16.1808 21.4438 16.2024 21.7825 16.2915C22.1212 16.3806 22.439 16.5356 22.7178 16.7476C22.9967 16.9595 23.231 17.2243 23.4075 17.5269C23.584 17.8294 23.6991 18.1637 23.7464 18.5108C23.7937 18.8578 23.7722 19.2108 23.683 19.5495C23.5939 19.8882 23.4389 20.206 23.227 20.4849C23.015 20.7637 22.7502 20.998 22.4477 21.1745C22.1451 21.351 21.8108 21.4662 21.4638 21.5134C16.9996 22.1393 12.9109 24.3543 9.94827 27.7518C6.98567 31.1494 5.34795 35.5016 5.33576 40.0094C5.32463 43.5305 6.3262 46.9804 8.22109 49.9481C8.4356 50.2828 8.57256 50.6613 8.62193 51.0558C8.6713 51.4503 8.63183 51.8508 8.50642 52.2281L6.73042 57.5748L12.9358 56.0174C13.602 55.851 14.3067 55.9474 14.9038 56.2868C17.6783 57.8583 20.8137 58.6816 24.0024 58.6761C28.34 58.6738 32.5415 57.162 35.8862 54.4003C39.2308 51.6385 41.5102 47.7989 42.3331 43.5401C42.4664 42.8452 42.8703 42.2318 43.4559 41.8347C44.0415 41.4376 44.7609 41.2895 45.4558 41.4228C46.1506 41.5561 46.7641 41.96 47.1611 42.5456C47.5582 43.1312 47.7064 43.8506 47.5731 44.5454C46.5144 50.0215 43.5834 54.9585 39.2828 58.5099C34.9821 62.0613 29.5798 64.0056 24.0024 64.0094C20.2604 64.0136 16.5701 63.1347 13.2318 61.4441L3.31709 63.9294C3.10526 63.983 2.88758 64.0099 2.66909 64.0094ZM26.6691 37.3428C26.6691 36.6355 26.3881 35.9573 25.888 35.4572C25.3879 34.9571 24.7097 34.6761 24.0024 34.6761H16.0024C15.2952 34.6761 14.6169 34.9571 14.1168 35.4572C13.6167 35.9573 13.3358 36.6355 13.3358 37.3428C13.3358 38.05 13.6167 38.7283 14.1168 39.2284C14.6169 39.7285 15.2952 40.0094 16.0024 40.0094H24.0024C24.7097 40.0094 25.3879 39.7285 25.888 39.2284C26.3881 38.7283 26.6691 38.05 26.6691 37.3428ZM32.0024 45.3428C32.0024 44.6355 31.7215 43.9573 31.2214 43.4572C30.7213 42.9571 30.043 42.6761 29.3358 42.6761H16.0024C15.2952 42.6761 14.6169 42.9571 14.1168 43.4572C13.6167 43.9573 13.3358 44.6355 13.3358 45.3428C13.3358 46.05 13.6167 46.7283 14.1168 47.2284C14.6169 47.7285 15.2952 48.0094 16.0024 48.0094H29.3358C30.043 48.0094 30.7213 47.7285 31.2214 47.2284C31.7215 46.7283 32.0024 46.05 32.0024 45.3428Z"/>
<path d="M61.3333 37.3333C61.1148 37.3338 60.8972 37.307 60.6853 37.2533L53.4853 35.448C50.9476 36.6907 48.159 37.3357 45.3333 37.3333C41.6414 37.3333 38.0324 36.2386 34.9627 34.1874C31.893 32.1363 29.5004 29.221 28.0876 25.8101C26.6748 22.3992 26.3051 18.646 27.0253 15.025C27.7456 11.404 29.5234 8.07793 32.134 5.46735C34.7446 2.85677 38.0707 1.07894 41.6917 0.358683C45.3126 -0.361574 49.0659 0.00808811 52.4768 1.42092C55.8877 2.83376 58.803 5.22631 60.8541 8.29603C62.9052 11.3657 64 14.9748 64 18.6667C64.0062 21.7547 63.2379 24.795 61.7653 27.5093L63.864 33.8293C63.9965 34.2299 64.032 34.6562 63.9677 35.0732C63.9034 35.4902 63.7411 35.8859 63.494 36.228C63.247 36.57 62.9223 36.8486 62.5467 37.0407C62.1711 37.2329 61.7553 37.3332 61.3333 37.3333ZM45.3333 5.33334C41.7971 5.33334 38.4057 6.7381 35.9053 9.23859C33.4048 11.7391 32 15.1305 32 18.6667C32 22.2029 33.4048 25.5943 35.9053 28.0948C38.4057 30.5953 41.7971 32 45.3333 32C47.608 32.0042 49.8447 31.417 51.824 30.296C52.4207 29.9528 53.1282 29.8571 53.7947 30.0293L57.2747 30.8987L56.3227 28.04C56.1977 27.6631 56.1584 27.2631 56.2078 26.8691C56.2572 26.4751 56.3939 26.0971 56.608 25.7627C57.9603 23.6436 58.6748 21.1804 58.6667 18.6667C58.6624 15.1318 57.2563 11.7428 54.7568 9.24326C52.2572 6.74369 48.8683 5.33758 45.3333 5.33334ZM50.6667 24C50.6667 23.2928 50.3857 22.6145 49.8856 22.1144C49.3855 21.6143 48.7073 21.3333 48 21.3333H45.3333C44.6261 21.3333 43.9478 21.6143 43.4477 22.1144C42.9476 22.6145 42.6667 23.2928 42.6667 24C42.6667 24.7073 42.9476 25.3855 43.4477 25.8856C43.9478 26.3857 44.6261 26.6667 45.3333 26.6667H48C48.7073 26.6667 49.3855 26.3857 49.8856 25.8856C50.3857 25.3855 50.6667 24.7073 50.6667 24ZM50.6667 16C50.6667 15.2928 50.3857 14.6145 49.8856 14.1144C49.3855 13.6143 48.7073 13.3333 48 13.3333H40C39.2928 13.3333 38.6145 13.6143 38.1144 14.1144C37.6143 14.6145 37.3333 15.2928 37.3333 16C37.3333 16.7073 37.6143 17.3855 38.1144 17.8856C38.6145 18.3857 39.2928 18.6667 40 18.6667H48C48.7073 18.6667 49.3855 18.3857 49.8856 17.8856C50.3857 17.3855 50.6667 16.7073 50.6667 16Z"/>
</mask>
<path d="M2.66909 64.0094C2.24664 64.0098 1.83014 63.9098 1.4539 63.7177C1.07767 63.5256 0.752461 63.2468 0.505072 62.9044C0.257684 62.5619 0.0951917 62.1656 0.0309824 61.7481C-0.0332268 61.3305 0.00268382 60.9037 0.135756 60.5028L3.05842 51.7108C1.04583 48.1399 -0.00705886 44.1084 0.00242293 40.0094C0.018336 34.2128 2.12473 28.6164 5.93484 24.2479C9.74496 19.8793 15.0031 17.0318 20.7438 16.2281C21.0908 16.1808 21.4438 16.2024 21.7825 16.2915C22.1212 16.3806 22.439 16.5356 22.7178 16.7476C22.9967 16.9595 23.231 17.2243 23.4075 17.5269C23.584 17.8294 23.6991 18.1637 23.7464 18.5108C23.7937 18.8578 23.7722 19.2108 23.683 19.5495C23.5939 19.8882 23.4389 20.206 23.227 20.4849C23.015 20.7637 22.7502 20.998 22.4477 21.1745C22.1451 21.351 21.8108 21.4662 21.4638 21.5134C16.9996 22.1393 12.9109 24.3543 9.94827 27.7518C6.98567 31.1494 5.34795 35.5016 5.33576 40.0094C5.32463 43.5305 6.3262 46.9804 8.22109 49.9481C8.4356 50.2828 8.57256 50.6613 8.62193 51.0558C8.6713 51.4503 8.63183 51.8508 8.50642 52.2281L6.73042 57.5748L12.9358 56.0174C13.602 55.851 14.3067 55.9474 14.9038 56.2868C17.6783 57.8583 20.8137 58.6816 24.0024 58.6761C28.34 58.6738 32.5415 57.162 35.8862 54.4003C39.2308 51.6385 41.5102 47.7989 42.3331 43.5401C42.4664 42.8452 42.8703 42.2318 43.4559 41.8347C44.0415 41.4376 44.7609 41.2895 45.4558 41.4228C46.1506 41.5561 46.7641 41.96 47.1611 42.5456C47.5582 43.1312 47.7064 43.8506 47.5731 44.5454C46.5144 50.0215 43.5834 54.9585 39.2828 58.5099C34.9821 62.0613 29.5798 64.0056 24.0024 64.0094C20.2604 64.0136 16.5701 63.1347 13.2318 61.4441L3.31709 63.9294C3.10526 63.983 2.88758 64.0099 2.66909 64.0094ZM26.6691 37.3428C26.6691 36.6355 26.3881 35.9573 25.888 35.4572C25.3879 34.9571 24.7097 34.6761 24.0024 34.6761H16.0024C15.2952 34.6761 14.6169 34.9571 14.1168 35.4572C13.6167 35.9573 13.3358 36.6355 13.3358 37.3428C13.3358 38.05 13.6167 38.7283 14.1168 39.2284C14.6169 39.7285 15.2952 40.0094 16.0024 40.0094H24.0024C24.7097 40.0094 25.3879 39.7285 25.888 39.2284C26.3881 38.7283 26.6691 38.05 26.6691 37.3428ZM32.0024 45.3428C32.0024 44.6355 31.7215 43.9573 31.2214 43.4572C30.7213 42.9571 30.043 42.6761 29.3358 42.6761H16.0024C15.2952 42.6761 14.6169 42.9571 14.1168 43.4572C13.6167 43.9573 13.3358 44.6355 13.3358 45.3428C13.3358 46.05 13.6167 46.7283 14.1168 47.2284C14.6169 47.7285 15.2952 48.0094 16.0024 48.0094H29.3358C30.043 48.0094 30.7213 47.7285 31.2214 47.2284C31.7215 46.7283 32.0024 46.05 32.0024 45.3428Z" fill="#3D3D3D"/>
<path d="M61.3333 37.3333C61.1148 37.3338 60.8972 37.307 60.6853 37.2533L53.4853 35.448C50.9476 36.6907 48.159 37.3357 45.3333 37.3333C41.6414 37.3333 38.0324 36.2386 34.9627 34.1874C31.893 32.1363 29.5004 29.221 28.0876 25.8101C26.6748 22.3992 26.3051 18.646 27.0253 15.025C27.7456 11.404 29.5234 8.07793 32.134 5.46735C34.7446 2.85677 38.0707 1.07894 41.6917 0.358683C45.3126 -0.361574 49.0659 0.00808811 52.4768 1.42092C55.8877 2.83376 58.803 5.22631 60.8541 8.29603C62.9052 11.3657 64 14.9748 64 18.6667C64.0062 21.7547 63.2379 24.795 61.7653 27.5093L63.864 33.8293C63.9965 34.2299 64.032 34.6562 63.9677 35.0732C63.9034 35.4902 63.7411 35.8859 63.494 36.228C63.247 36.57 62.9223 36.8486 62.5467 37.0407C62.1711 37.2329 61.7553 37.3332 61.3333 37.3333ZM45.3333 5.33334C41.7971 5.33334 38.4057 6.7381 35.9053 9.23859C33.4048 11.7391 32 15.1305 32 18.6667C32 22.2029 33.4048 25.5943 35.9053 28.0948C38.4057 30.5953 41.7971 32 45.3333 32C47.608 32.0042 49.8447 31.417 51.824 30.296C52.4207 29.9528 53.1282 29.8571 53.7947 30.0293L57.2747 30.8987L56.3227 28.04C56.1977 27.6631 56.1584 27.2631 56.2078 26.8691C56.2572 26.4751 56.3939 26.0971 56.608 25.7627C57.9603 23.6436 58.6748 21.1804 58.6667 18.6667C58.6624 15.1318 57.2563 11.7428 54.7568 9.24326C52.2572 6.74369 48.8683 5.33758 45.3333 5.33334ZM50.6667 24C50.6667 23.2928 50.3857 22.6145 49.8856 22.1144C49.3855 21.6143 48.7073 21.3333 48 21.3333H45.3333C44.6261 21.3333 43.9478 21.6143 43.4477 22.1144C42.9476 22.6145 42.6667 23.2928 42.6667 24C42.6667 24.7073 42.9476 25.3855 43.4477 25.8856C43.9478 26.3857 44.6261 26.6667 45.3333 26.6667H48C48.7073 26.6667 49.3855 26.3857 49.8856 25.8856C50.3857 25.3855 50.6667 24.7073 50.6667 24ZM50.6667 16C50.6667 15.2928 50.3857 14.6145 49.8856 14.1144C49.3855 13.6143 48.7073 13.3333 48 13.3333H40C39.2928 13.3333 38.6145 13.6143 38.1144 14.1144C37.6143 14.6145 37.3333 15.2928 37.3333 16C37.3333 16.7073 37.6143 17.3855 38.1144 17.8856C38.6145 18.3857 39.2928 18.6667 40 18.6667H48C48.7073 18.6667 49.3855 18.3857 49.8856 17.8856C50.3857 17.3855 50.6667 16.7073 50.6667 16Z" fill="#CCFF00"/>
<path d="M2.66909 64.0094C2.24664 64.0098 1.83014 63.9098 1.4539 63.7177C1.07767 63.5256 0.752461 63.2468 0.505072 62.9044C0.257684 62.5619 0.0951917 62.1656 0.0309824 61.7481C-0.0332268 61.3305 0.00268382 60.9037 0.135756 60.5028L3.05842 51.7108C1.04583 48.1399 -0.00705886 44.1084 0.00242293 40.0094C0.018336 34.2128 2.12473 28.6164 5.93484 24.2479C9.74496 19.8793 15.0031 17.0318 20.7438 16.2281C21.0908 16.1808 21.4438 16.2024 21.7825 16.2915C22.1212 16.3806 22.439 16.5356 22.7178 16.7476C22.9967 16.9595 23.231 17.2243 23.4075 17.5269C23.584 17.8294 23.6991 18.1637 23.7464 18.5108C23.7937 18.8578 23.7722 19.2108 23.683 19.5495C23.5939 19.8882 23.4389 20.206 23.227 20.4849C23.015 20.7637 22.7502 20.998 22.4477 21.1745C22.1451 21.351 21.8108 21.4662 21.4638 21.5134C16.9996 22.1393 12.9109 24.3543 9.94827 27.7518C6.98567 31.1494 5.34795 35.5016 5.33576 40.0094C5.32463 43.5305 6.3262 46.9804 8.22109 49.9481C8.4356 50.2828 8.57256 50.6613 8.62193 51.0558C8.6713 51.4503 8.63183 51.8508 8.50642 52.2281L6.73042 57.5748L12.9358 56.0174C13.602 55.851 14.3067 55.9474 14.9038 56.2868C17.6783 57.8583 20.8137 58.6816 24.0024 58.6761C28.34 58.6738 32.5415 57.162 35.8862 54.4003C39.2308 51.6385 41.5102 47.7989 42.3331 43.5401C42.4664 42.8452 42.8703 42.2318 43.4559 41.8347C44.0415 41.4376 44.7609 41.2895 45.4558 41.4228C46.1506 41.5561 46.7641 41.96 47.1611 42.5456C47.5582 43.1312 47.7064 43.8506 47.5731 44.5454C46.5144 50.0215 43.5834 54.9585 39.2828 58.5099C34.9821 62.0613 29.5798 64.0056 24.0024 64.0094C20.2604 64.0136 16.5701 63.1347 13.2318 61.4441L3.31709 63.9294C3.10526 63.983 2.88758 64.0099 2.66909 64.0094ZM26.6691 37.3428C26.6691 36.6355 26.3881 35.9573 25.888 35.4572C25.3879 34.9571 24.7097 34.6761 24.0024 34.6761H16.0024C15.2952 34.6761 14.6169 34.9571 14.1168 35.4572C13.6167 35.9573 13.3358 36.6355 13.3358 37.3428C13.3358 38.05 13.6167 38.7283 14.1168 39.2284C14.6169 39.7285 15.2952 40.0094 16.0024 40.0094H24.0024C24.7097 40.0094 25.3879 39.7285 25.888 39.2284C26.3881 38.7283 26.6691 38.05 26.6691 37.3428ZM32.0024 45.3428C32.0024 44.6355 31.7215 43.9573 31.2214 43.4572C30.7213 42.9571 30.043 42.6761 29.3358 42.6761H16.0024C15.2952 42.6761 14.6169 42.9571 14.1168 43.4572C13.6167 43.9573 13.3358 44.6355 13.3358 45.3428C13.3358 46.05 13.6167 46.7283 14.1168 47.2284C14.6169 47.7285 15.2952 48.0094 16.0024 48.0094H29.3358C30.043 48.0094 30.7213 47.7285 31.2214 47.2284C31.7215 46.7283 32.0024 46.05 32.0024 45.3428Z" stroke="#1B1B1B" stroke-width="1.8" mask="url(#path-1-inside-1_6217_6122)"/>
<path d="M61.3333 37.3333C61.1148 37.3338 60.8972 37.307 60.6853 37.2533L53.4853 35.448C50.9476 36.6907 48.159 37.3357 45.3333 37.3333C41.6414 37.3333 38.0324 36.2386 34.9627 34.1874C31.893 32.1363 29.5004 29.221 28.0876 25.8101C26.6748 22.3992 26.3051 18.646 27.0253 15.025C27.7456 11.404 29.5234 8.07793 32.134 5.46735C34.7446 2.85677 38.0707 1.07894 41.6917 0.358683C45.3126 -0.361574 49.0659 0.00808811 52.4768 1.42092C55.8877 2.83376 58.803 5.22631 60.8541 8.29603C62.9052 11.3657 64 14.9748 64 18.6667C64.0062 21.7547 63.2379 24.795 61.7653 27.5093L63.864 33.8293C63.9965 34.2299 64.032 34.6562 63.9677 35.0732C63.9034 35.4902 63.7411 35.8859 63.494 36.228C63.247 36.57 62.9223 36.8486 62.5467 37.0407C62.1711 37.2329 61.7553 37.3332 61.3333 37.3333ZM45.3333 5.33334C41.7971 5.33334 38.4057 6.7381 35.9053 9.23859C33.4048 11.7391 32 15.1305 32 18.6667C32 22.2029 33.4048 25.5943 35.9053 28.0948C38.4057 30.5953 41.7971 32 45.3333 32C47.608 32.0042 49.8447 31.417 51.824 30.296C52.4207 29.9528 53.1282 29.8571 53.7947 30.0293L57.2747 30.8987L56.3227 28.04C56.1977 27.6631 56.1584 27.2631 56.2078 26.8691C56.2572 26.4751 56.3939 26.0971 56.608 25.7627C57.9603 23.6436 58.6748 21.1804 58.6667 18.6667C58.6624 15.1318 57.2563 11.7428 54.7568 9.24326C52.2572 6.74369 48.8683 5.33758 45.3333 5.33334ZM50.6667 24C50.6667 23.2928 50.3857 22.6145 49.8856 22.1144C49.3855 21.6143 48.7073 21.3333 48 21.3333H45.3333C44.6261 21.3333 43.9478 21.6143 43.4477 22.1144C42.9476 22.6145 42.6667 23.2928 42.6667 24C42.6667 24.7073 42.9476 25.3855 43.4477 25.8856C43.9478 26.3857 44.6261 26.6667 45.3333 26.6667H48C48.7073 26.6667 49.3855 26.3857 49.8856 25.8856C50.3857 25.3855 50.6667 24.7073 50.6667 24ZM50.6667 16C50.6667 15.2928 50.3857 14.6145 49.8856 14.1144C49.3855 13.6143 48.7073 13.3333 48 13.3333H40C39.2928 13.3333 38.6145 13.6143 38.1144 14.1144C37.6143 14.6145 37.3333 15.2928 37.3333 16C37.3333 16.7073 37.6143 17.3855 38.1144 17.8856C38.6145 18.3857 39.2928 18.6667 40 18.6667H48C48.7073 18.6667 49.3855 18.3857 49.8856 17.8856C50.3857 17.3855 50.6667 16.7073 50.6667 16Z" stroke="#1B1B1B" stroke-width="1.8" mask="url(#path-1-inside-1_6217_6122)"/>
</svg>
